<?xml version="1.0" encoding="UTF-8" standalone="no"?>
<!DOCTYPE svg PUBLIC "-//W3C//DTD SVG 1.1//EN" "http://www.w3.org/Graphics/SVG/1.1/DTD/svg11.dtd">
<svg width="100%" height="100%" viewBox="0 0 800 600" version="1.1" xmlns="http://www.w3.org/2000/svg" xmlns:xlink="http://www.w3.org/1999/xlink" xml:space="preserve" xmlns:serif="http://www.serif.com/" style="fill-rule:evenodd;clip-rule:evenodd;stroke-linejoin:round;stroke-miterlimit:2;">
    <g transform="matrix(0.839302,0.978025,-0.978025,0.839302,288.292,-311.149)">
        <path d="M317.204,132.652C317.985,130.416 318.532,128.379 318.836,126.527C320.682,115.302 344.853,137.775 369.902,158.199L367.479,174.916L361.835,187.006C359.036,195.987 359.943,201.267 368.626,198.78C368.626,198.78 373.88,196.971 376.841,191.005C379.803,185.039 383.509,175.666 383.509,175.666L386.315,170.987C390.101,173.749 393.794,176.272 397.314,178.423C400.063,180.103 405.217,183.621 412.088,188.48C411.343,190.919 410.423,194.281 409.288,198.895C404.242,219.41 399.308,228.682 399.308,228.682C399.308,228.682 388.408,234.365 382.264,240.2C376.121,246.034 375.31,246.684 375.31,246.684C372.893,251.915 373.72,255.35 382.998,254.107C382.998,254.107 391.409,243.965 400.151,238.313C408.893,232.662 412.365,234.118 416.528,226.664C420.691,219.209 421.244,212.383 421.244,212.383L425.173,199.196L425.454,198.056C433.226,203.682 442.073,210.167 451.485,217.144L443.106,228.238L438.328,237.01L426.477,243.844L411.204,251.771C405.808,258.368 404.217,263.894 413.989,266.224L426.676,261.86L440.615,258.189L450.241,250.097L459.773,240.764C459.773,240.764 461.525,236.781 467.413,232.033C468.102,231.477 468.739,230.952 469.328,230.456C470.817,231.574 472.31,232.696 473.806,233.823C478.912,237.668 483.656,242.105 488.036,246.988C486.391,251.366 483.577,257.954 480.019,262.782C474.215,270.658 468.864,275.211 461.786,283.391C454.707,291.571 450.09,297.153 444.81,300.95C439.529,304.747 435.157,306.827 422.362,313.556C409.568,320.285 411.089,332.376 411.089,332.376C411.089,332.376 422.341,334.631 432.875,329.53C443.41,324.429 447.261,323.188 452.708,318.673C458.155,314.158 455.71,314.973 463.17,310.305C470.63,305.637 471.068,304.796 477.929,297.405C484.789,290.015 499.976,271.8 499.976,271.8L502.959,267.439C511.669,281.997 518.121,298.273 522.334,314.048C520.071,318.996 516.279,324.712 509.973,330.618C491.787,347.648 496.703,346.949 476.085,357.14C455.468,367.33 455.965,368.607 447.621,371.367C439.277,374.126 436.522,373.167 426.813,376.107C417.103,379.047 412.038,379.719 412.038,379.719C405.885,383.368 405.642,386.788 411.307,389.979C411.307,389.979 420.368,394.446 433.12,394.561C445.871,394.677 437.094,395.214 448.083,394.507C459.072,393.801 459.41,397.023 477.515,390.788C495.62,384.553 493.416,385.988 503.931,378.993C514.447,371.998 511.47,373.92 518.223,368.873C524.976,363.826 520.037,365.844 527.731,359.951C527.898,359.822 528.064,359.695 528.226,359.569C528.012,365.234 527.326,370.302 526.171,374.557C520.139,396.788 512.44,418.264 492.117,431.568C489.133,431.06 484.871,430.335 480.874,429.658C473.715,428.446 476.265,429.048 468.88,428.142C461.496,427.237 457.185,426.172 445.318,422.894C433.45,419.615 426.243,418.599 426.243,418.599L401.366,413.182C401.366,413.182 410.6,422.837 415.665,426.057C420.731,429.276 438.532,431.579 438.532,431.579C438.532,431.579 446.669,434.818 453.772,436.572C460.737,438.293 454.618,440.134 473.368,440.206C473.272,440.236 473.174,440.266 473.075,440.296C431.579,452.918 389.477,432.204 386.202,422.096C380.581,441.773 356.063,463.246 323.69,470.587C305.798,474.644 274.957,474.713 250.881,457.577L277.482,454.943L297.495,443.594L321.076,433.087L333.583,411.01C335.828,403.313 332.948,398.033 321.382,396.851L290.376,416.323C290.376,416.323 290.164,418.538 283.639,422.87C277.114,427.202 273.094,429.798 273.094,429.798C273.094,429.798 272.172,434.057 257.459,436.188C245.917,437.86 236.078,438.28 232.372,438.383C224.673,426.779 219.097,411.585 217.041,391.862C218.591,392.314 222.404,393.162 230.252,393.626C241.297,394.279 244.097,395.797 251.751,394.446C259.404,393.094 255.884,393.991 263.822,392.656C271.761,391.32 275.367,390.533 275.367,390.533L280.712,386.969L286.697,372.022C286.697,372.022 296.387,360.743 286.13,362.388C275.872,364.033 277.194,361.319 270.957,364.597C264.72,367.876 270.43,369.343 259.92,370.198C249.41,371.052 251.237,371.415 242.409,371.267C233.581,371.119 228.973,370.931 228.973,370.931L216.05,368.726C215.994,344.902 218.43,325.175 222.675,307.942L234.525,316.582L247.499,322.105L261.696,329.777C261.696,329.777 263.707,330.626 271.892,330.618C280.078,330.61 307.279,338.14 307.279,338.14C322.063,331.868 328.979,324.686 312.579,317.595L278.151,313.572L266.843,310.568L257.249,305.282L251.089,294.774L234.216,284.611L229.85,284.98C235.137,271.12 241.657,258.706 248.893,246.532C250.835,247.969 253.07,249.585 255.559,251.328C265.072,257.99 287.874,275.589 287.874,275.589L315.707,292.275C323.56,288.087 323.575,282.68 314.981,275.933L298.218,256.02L267.402,236.935L263.902,222.556C266.514,218.49 269.164,214.37 271.836,210.148C276.512,202.758 280.88,195.892 284.923,189.511L298.707,199.975L303.877,213.732L315.051,233.696L323.194,243.019C324.452,246.73 342.721,248.361 338.517,238.262C336.127,232.521 330.748,224.672 327.757,219.26C324.766,213.848 312.393,200.69 312.393,200.69L306.411,191.156L297.841,180.718L292.212,177.963C302.094,162.209 309.47,149.918 313.976,140.384C315.214,142.047 317.457,145.022 321.52,150.343C330.734,162.412 332.691,166.728 332.691,166.728C336.412,174.269 347.849,172.288 339.896,159.773C336.531,154.478 325.123,143.358 325.123,143.358L319.327,133.474L317.204,132.652Z" style="fill:rgb(0,76,24);"/>
    </g>
    <g transform="matrix(0.0493344,0.723519,-0.723519,0.0493344,791.398,-23.8719)">
        <path d="M317.204,132.652C317.985,130.416 318.532,128.379 318.836,126.527C320.682,115.302 344.853,137.775 369.902,158.199L367.479,174.916L361.835,187.006C359.036,195.987 359.943,201.267 368.626,198.78C368.626,198.78 373.88,196.971 376.841,191.005C379.803,185.039 383.509,175.666 383.509,175.666L386.315,170.987C390.101,173.749 393.794,176.272 397.314,178.423C400.063,180.103 405.217,183.621 412.088,188.48C411.343,190.919 410.423,194.281 409.288,198.895C404.242,219.41 399.308,228.682 399.308,228.682C399.308,228.682 388.408,234.365 382.264,240.2C376.121,246.034 375.31,246.684 375.31,246.684C372.893,251.915 373.72,255.35 382.998,254.107C382.998,254.107 391.409,243.965 400.151,238.313C408.893,232.662 412.365,234.118 416.528,226.664C420.691,219.209 421.244,212.383 421.244,212.383L425.173,199.196L425.454,198.056C433.226,203.682 442.073,210.167 451.485,217.144L443.106,228.238L438.328,237.01L426.477,243.844L411.204,251.771C405.808,258.368 404.217,263.894 413.989,266.224L426.676,261.86L440.615,258.189L450.241,250.097L459.773,240.764C459.773,240.764 461.525,236.781 467.413,232.033C468.102,231.477 468.739,230.952 469.328,230.456C470.817,231.574 472.31,232.696 473.806,233.823C478.912,237.668 483.656,242.105 488.036,246.988C486.391,251.366 483.577,257.954 480.019,262.782C474.215,270.658 468.864,275.211 461.786,283.391C454.707,291.571 450.09,297.153 444.81,300.95C439.529,304.747 435.157,306.827 422.362,313.556C409.568,320.285 411.089,332.376 411.089,332.376C411.089,332.376 422.341,334.631 432.875,329.53C443.41,324.429 447.261,323.188 452.708,318.673C458.155,314.158 455.71,314.973 463.17,310.305C470.63,305.637 471.068,304.796 477.929,297.405C484.789,290.015 499.976,271.8 499.976,271.8L502.959,267.439C511.669,281.997 518.121,298.273 522.334,314.048C520.071,318.996 516.279,324.712 509.973,330.618C491.787,347.648 496.703,346.949 476.085,357.14C455.468,367.33 455.965,368.607 447.621,371.367C439.277,374.126 436.522,373.167 426.813,376.107C417.103,379.047 412.038,379.719 412.038,379.719C405.885,383.368 405.642,386.788 411.307,389.979C411.307,389.979 420.368,394.446 433.12,394.561C445.871,394.677 437.094,395.214 448.083,394.507C459.072,393.801 459.41,397.023 477.515,390.788C495.62,384.553 493.416,385.988 503.931,378.993C514.447,371.998 511.47,373.92 518.223,368.873C524.976,363.826 520.037,365.844 527.731,359.951C527.898,359.822 528.064,359.695 528.226,359.569C528.012,365.234 527.326,370.302 526.171,374.557C520.139,396.788 512.44,418.264 492.117,431.568C489.133,431.06 484.871,430.335 480.874,429.658C473.715,428.446 476.265,429.048 468.88,428.142C461.496,427.237 457.185,426.172 445.318,422.894C433.45,419.615 426.243,418.599 426.243,418.599L401.366,413.182C401.366,413.182 410.6,422.837 415.665,426.057C420.731,429.276 438.532,431.579 438.532,431.579C438.532,431.579 446.669,434.818 453.772,436.572C460.737,438.293 454.618,440.134 473.368,440.206C473.272,440.236 473.174,440.266 473.075,440.296C431.579,452.918 389.477,432.204 386.202,422.096C380.581,441.773 356.063,463.246 323.69,470.587C305.798,474.644 274.957,474.713 250.881,457.577L277.482,454.943L297.495,443.594L321.076,433.087L333.583,411.01C335.828,403.313 332.948,398.033 321.382,396.851L290.376,416.323C290.376,416.323 290.164,418.538 283.639,422.87C277.114,427.202 273.094,429.798 273.094,429.798C273.094,429.798 272.172,434.057 257.459,436.188C245.917,437.86 236.078,438.28 232.372,438.383C224.673,426.779 219.097,411.585 217.041,391.862C218.591,392.314 222.404,393.162 230.252,393.626C241.297,394.279 244.097,395.797 251.751,394.446C259.404,393.094 255.884,393.991 263.822,392.656C271.761,391.32 275.367,390.533 275.367,390.533L280.712,386.969L286.697,372.022C286.697,372.022 296.387,360.743 286.13,362.388C275.872,364.033 277.194,361.319 270.957,364.597C264.72,367.876 270.43,369.343 259.92,370.198C249.41,371.052 251.237,371.415 242.409,371.267C233.581,371.119 228.973,370.931 228.973,370.931L216.05,368.726C215.994,344.902 218.43,325.175 222.675,307.942L234.525,316.582L247.499,322.105L261.696,329.777C261.696,329.777 263.707,330.626 271.892,330.618C280.078,330.61 307.279,338.14 307.279,338.14C322.063,331.868 328.979,324.686 312.579,317.595L278.151,313.572L266.843,310.568L257.249,305.282L251.089,294.774L234.216,284.611L229.85,284.98C235.137,271.12 241.657,258.706 248.893,246.532C250.835,247.969 253.07,249.585 255.559,251.328C265.072,257.99 287.874,275.589 287.874,275.589L315.707,292.275C323.56,288.087 323.575,282.68 314.981,275.933L298.218,256.02L267.402,236.935L263.902,222.556C266.514,218.49 269.164,214.37 271.836,210.148C276.512,202.758 280.88,195.892 284.923,189.511L298.707,199.975L303.877,213.732L315.051,233.696L323.194,243.019C324.452,246.73 342.721,248.361 338.517,238.262C336.127,232.521 330.748,224.672 327.757,219.26C324.766,213.848 312.393,200.69 312.393,200.69L306.411,191.156L297.841,180.718L292.212,177.963C302.094,162.209 309.47,149.918 313.976,140.384C315.214,142.047 317.457,145.022 321.52,150.343C330.734,162.412 332.691,166.728 332.691,166.728C336.412,174.269 347.849,172.288 339.896,159.773C336.531,154.478 325.123,143.358 325.123,143.358L319.327,133.474L317.204,132.652Z" style="fill:rgb(0,76,24);"/>
    </g>
</svg>
